<?xml version="1.0" standalone="no"?>
<!DOCTYPE svg PUBLIC "-//W3C//DTD SVG 20010904//EN"
 "http://www.w3.org/TR/2001/REC-SVG-20010904/DTD/svg10.dtd">
<svg version="1.0" xmlns="http://www.w3.org/2000/svg"
 width="1024.000000pt" height="1024.000000pt" viewBox="0 0 1024.000000 1024.000000"
 preserveAspectRatio="xMidYMid meet">

<g transform="translate(0.000000,1024.000000) scale(0.100000,-0.100000)"
fill="#ffa6a6" stroke="none">
<path d="M4980 7770 c-159 -22 -326 -72 -450 -135 -247 -126 -457 -365 -545
-620 -44 -129 -57 -333 -31 -470 8 -38 13 -71 12 -71 0 -1 -46 13 -101 32
-127 42 -202 54 -343 54 -552 0 -1026 -427 -1117 -1006 -21 -130 -16 -367 8
-479 58 -260 199 -485 398 -634 134 -102 289 -167 422 -180 l68 -6 -56 -75
c-138 -183 -191 -372 -183 -641 5 -128 10 -169 32 -244 90 -304 312 -574 591
-717 175 -89 331 -128 516 -128 253 0 478 74 678 224 65 49 177 177 223 256
l33 56 33 -55 c129 -214 349 -376 607 -447 92 -26 114 -28 280 -28 163 0 189
3 278 27 202 54 370 147 518 285 109 103 175 188 238 312 132 258 161 508 91
786 -23 93 -101 256 -160 334 l-41 55 59 7 c173 19 356 108 497 239 172 161
288 384 336 649 16 91 14 328 -5 421 -81 414 -345 753 -707 910 -231 100 -577
107 -783 15 -32 -14 -61 -26 -63 -26 -3 0 -3 10 1 23 3 13 10 67 16 120 19
169 -15 364 -91 523 -144 302 -479 549 -841 619 -99 19 -327 27 -418 15z
m-585 -523 c-32 -78 -44 -289 -24 -434 13 -97 60 -246 106 -338 55 -110 304
-524 399 -666 16 -23 24 -49 24 -76 0 -42 42 -266 60 -318 14 -40 14 -39 -161
185 -512 656 -558 723 -608 883 -82 266 -22 540 163 745 26 28 49 52 51 52 2
0 -2 -15 -10 -33z m1569 -77 c193 -245 208 -584 38 -874 -32 -55 -88 -130
-408 -551 -251 -329 -277 -361 -269 -330 15 65 34 175 46 270 10 89 16 106 49
155 130 190 352 573 400 690 77 186 107 366 90 535 -9 90 -22 159 -36 201 -7
21 20 -7 90 -96z m-1276 -216 c70 -75 135 -193 157 -285 16 -61 33 -378 23
-424 -3 -18 -6 -16 -19 10 -9 17 -52 89 -96 161 -119 195 -167 342 -180 543
l-6 105 31 -22 c17 -12 57 -52 90 -88z m1017 -1 c-12 -167 -41 -275 -110 -413
-37 -73 -158 -275 -178 -295 -17 -18 -1 371 18 439 21 76 66 167 116 234 39
51 131 132 151 132 7 0 8 -33 3 -97z m-491 -440 c8 -51 6 -370 -3 -513 -6 -87
-15 -141 -41 -223 l-34 -109 -11 44 c-7 24 -24 84 -38 135 -27 90 -27 97 -27
397 l0 306 74 0 73 0 7 -37z m-1484 -194 c204 -52 354 -162 546 -399 87 -107
478 -625 498 -658 8 -14 -146 66 -274 141 -167 99 -158 92 -694 530 -222 182
-426 280 -615 296 l-86 7 66 31 c68 33 158 59 244 73 71 12 227 1 315 -21z
m3225 1 c40 -10 106 -34 147 -54 l73 -34 -60 -1 c-163 -3 -373 -89 -554 -225
-55 -42 -177 -140 -273 -219 -309 -256 -500 -386 -727 -498 -56 -27 -63 -29
-50 -11 23 33 281 373 428 562 242 314 353 408 557 469 144 44 314 48 459 11z
m-3589 -361 c109 -45 216 -120 464 -325 268 -221 353 -286 459 -358 47 -31 80
-56 74 -56 -26 0 -246 53 -318 76 -242 79 -484 238 -612 406 -84 108 -190 307
-159 295 8 -3 49 -20 92 -38z m3644 35 c0 -12 -94 -180 -132 -237 -119 -176
-320 -333 -546 -424 -77 -32 -318 -98 -427 -117 -39 -7 -38 -6 30 35 110 67
274 192 485 370 303 255 355 292 503 350 76 30 87 33 87 23z m-3440 -859 c104
-11 645 -98 1069 -172 33 -6 34 -6 10 -18 -13 -7 -114 -49 -224 -93 -110 -44
-329 -137 -487 -206 -158 -69 -315 -135 -350 -147 -87 -30 -265 -37 -368 -15
-217 45 -424 217 -521 432 -16 35 -29 66 -29 70 0 3 23 -15 52 -41 106 -95
260 -168 436 -207 84 -19 129 -22 337 -23 l240 0 90 32 c50 17 137 54 195 81
l105 50 -65 1 c-95 1 -640 39 -745 52 -118 14 -221 42 -298 81 l-62 31 52 24
c90 41 265 79 383 82 25 0 106 -6 180 -14z m3400 5 c47 -6 112 -17 145 -25 66
-17 195 -67 195 -76 0 -3 -40 -22 -89 -42 -104 -42 -206 -62 -393 -77 -438
-33 -542 -40 -604 -41 l-69 0 90 -46 c211 -108 311 -128 583 -120 254 8 382
36 546 119 75 37 186 115 213 148 46 57 -47 -135 -102 -210 -48 -66 -161 -169
-227 -208 -31 -18 -89 -45 -130 -60 -66 -23 -88 -26 -218 -26 -167 -1 -216 11
-405 96 -234 106 -645 282 -741 318 -97 36 -168 69 -151 70 27 1 242 36 402
65 653 118 791 135 955 115z m-2227 -430 c-274 -242 -476 -378 -898 -605 -110
-59 -231 -128 -270 -153 -67 -43 -227 -193 -274 -257 l-22 -30 7 45 c3 25 18
81 31 125 74 236 212 386 461 502 169 78 999 428 1025 432 4 1 -23 -26 -60
-59z m943 -29 c104 -43 225 -94 269 -113 686 -298 680 -295 804 -412 112 -107
189 -245 225 -403 23 -101 21 -105 -20 -44 -93 138 -236 244 -556 415 -359
191 -464 255 -623 380 -127 100 -306 256 -293 256 3 0 91 -35 194 -79z m-649
-746 c-5 -614 -5 -623 -69 -788 -34 -90 -120 -211 -196 -278 -65 -56 -169
-119 -244 -147 -55 -20 -249 -65 -255 -58 -2 2 25 20 59 42 177 108 377 380
457 620 40 120 51 212 51 422 l0 177 -41 -70 c-62 -104 -142 -276 -183 -395
-72 -205 -149 -339 -260 -455 l-67 -70 5 140 c10 258 54 373 293 768 214 354
339 561 393 657 l55 95 3 -50 c2 -27 2 -302 -1 -610z m395 340 c538 -901 538
-900 554 -1212 l7 -127 -29 23 c-39 30 -111 115 -158 185 -48 73 -106 197
-150 326 -20 55 -50 133 -67 172 -30 68 -134 265 -147 280 -4 4 -4 -102 -1
-235 6 -260 11 -288 70 -436 85 -215 257 -437 419 -543 42 -28 64 -47 50 -44
-14 3 -61 13 -105 21 -98 19 -254 94 -342 165 -152 122 -253 302 -279 495 -6
45 -14 1250 -8 1242 1 -1 84 -141 186 -312z m-878 -67 c-149 -233 -254 -343
-451 -474 -177 -119 -350 -180 -542 -191 -122 -7 -121 -10 -22 99 88 95 170
152 396 273 297 158 506 282 604 356 47 36 88 65 90 63 2 -2 -32 -58 -75 -126z
m1197 46 c87 -65 248 -159 484 -282 290 -151 370 -204 483 -318 50 -52 92 -99
92 -104 0 -27 -233 0 -360 41 -143 47 -318 154 -463 282 -71 63 -168 186 -257
327 -29 47 -60 96 -69 110 l-16 25 26 -20 c14 -11 50 -38 80 -61z"/>
</g>
</svg>
